<svg width="512" height="512" viewBox="0 0 512 512" fill="none" xmlns="http://www.w3.org/2000/svg">
  <rect width="512" height="512" fill="#F5F3ED"/>
  <path d="M256 92C195 145 162 198 162 256C162 323 214 376 256 410C298 376 350 323 350 256C350 198 317 145 256 92Z" fill="#EF4444"/>
  <circle cx="256" cy="248" r="62" fill="#F5F3ED"/>
  <rect x="227" y="224" width="12" height="44" rx="6" fill="#EF4444"/>
  <rect x="250" y="224" width="12" height="44" rx="6" fill="#EF4444"/>
  <rect x="273" y="224" width="12" height="44" rx="6" fill="#EF4444"/>
  <rect x="250" y="266" width="12" height="78" rx="6" fill="#EF4444"/>
  <path d="M73 402H439V460H73V402Z" fill="#EF4444"/>
  <text x="256" y="446" text-anchor="middle" font-family="Arial, sans-serif" font-size="70" font-weight="800" fill="#F5F3ED">MAPVIBE</text>
</svg>
